<?xml version="1.0" encoding="UTF-8" standalone="no"?>
<!DOCTYPE svg PUBLIC "-//W3C//DTD SVG 1.0//EN" "http://www.w3.org/TR/2001/REC-SVG-20010904/DTD/svg10.dtd">
<!-- Généré par Microsoft Visio 11.0, SVG Export, v1.0 document-close.svg document-new -->
<svg xmlns="http://www.w3.org/2000/svg" xmlns:xlink="http://www.w3.org/1999/xlink" xmlns:ev="http://www.w3.org/2001/xml-events"
		xmlns:v="http://schemas.microsoft.com/visio/2003/SVGExtensions/" width="0.25in" height="0.25in" viewBox="0 0 18 18"
		xml:space="preserve" color-interpolation-filters="sRGB" class="st2">
	<v:documentProperties v:langID="1033" v:metric="true" v:viewMarkup="false"/>

	<style type="text/css">
	<![CDATA[
		.st1 {fill:#3b3f45;stroke:none;stroke-linecap:butt;stroke-width:0.75}
		.st2 {fill:none;fill-rule:evenodd;font-size:12px;overflow:visible;stroke-linecap:square;stroke-miterlimit:3}
	]]>
	</style>

	<g v:mID="0" v:index="1" v:groupContext="foregroundPage">
		<v:userDefs/>
		<title>document-new</title>
		<desc>Created with Sketch.</desc>
		<v:pageProperties v:drawingScale="1" v:pageScale="1" v:drawingUnits="19" v:shadowOffsetX="9" v:shadowOffsetY="-9"/>
		<g id="shape2-1" v:mID="2" v:groupContext="shape" transform="translate(3,-1.5)">
			<title>Shape</title>
			<path d="M1.49 16.5 L1.5 16.5 C1.5 16.5 1.5 16.5 1.49 16.5 ZM1.51 4.5 C1.51 4.5 1.5 16.5 1.5 16.5 L10.5 16.5 L10.5 8.12
						 L6.88 4.5 L1.51 4.5 ZM7.5 3 L12 7.5 L12 16.5 C12 17.33 11.33 18 10.5 18 L1.49 18 C0.66 18 -0 17.33 0 16.5
						 L0.01 4.5 C0.01 3.67 0.67 3 1.5 3 L7.5 3 Z" class="st1"/>
		</g>
		<g id="shape1-3" v:mID="1" v:groupContext="shape" transform="translate(5.98242,-3.75)">
			<title>Feuille.1</title>
			<path d="M0 12 L0 12.75 C0 12.75 0 13.12 0.38 13.5 L1.88 15 L0.38 16.5 C-0 16.87 0 17.25 0 17.25 L0 18 L0.75 18 C1.13
						 18 1.5 17.62 1.5 17.62 L3 16.12 L4.5 17.62 C4.5 17.62 4.88 18 5.25 18 L6 18 L6 17.25 C6 17.25 6 16.87 5.63
						 16.5 L4.13 15 L5.63 13.5 C6 13.12 6 12.75 6 12.75 L6 12 L5.25 12 C4.88 12 4.5 12.37 4.5 12.37 L3 13.87 L1.5
						 12.37 C1.5 12.37 1.13 12 0.75 12 L0 12 Z" class="st1"/>
		</g>
	</g>
</svg>
