<?xml version="1.0" encoding="UTF-8" standalone="no"?>
<!DOCTYPE svg PUBLIC "-//W3C//DTD SVG 1.0//EN" "http://www.w3.org/TR/2001/REC-SVG-20010904/DTD/svg10.dtd">
<!-- Généré par Microsoft Visio 11.0, SVG Export, v1.0 document-open-location.svg document-open -->
<svg xmlns="http://www.w3.org/2000/svg" xmlns:xlink="http://www.w3.org/1999/xlink" xmlns:ev="http://www.w3.org/2001/xml-events"
		xmlns:v="http://schemas.microsoft.com/visio/2003/SVGExtensions/" width="0.25in" height="0.25in" viewBox="0 0 18 18"
		xml:space="preserve" color-interpolation-filters="sRGB" class="st2">
	<v:documentProperties v:langID="1033" v:metric="true" v:viewMarkup="false"/>

	<style type="text/css">
	<![CDATA[
		.st1 {fill:#3b3f45;stroke:none;stroke-linecap:butt;stroke-width:0.75}
		.st2 {fill:none;fill-rule:evenodd;font-size:12px;overflow:visible;stroke-linecap:square;stroke-miterlimit:3}
	]]>
	</style>

	<g v:mID="0" v:index="1" v:groupContext="foregroundPage">
		<v:userDefs/>
		<title>document-open</title>
		<desc>Created with Sketch.</desc>
		<v:pageProperties v:drawingScale="1" v:pageScale="1" v:drawingUnits="19" v:shadowOffsetX="9" v:shadowOffsetY="-9"/>
		<g id="shape1-1" v:mID="1" v:groupContext="shape" transform="translate(1.5,-3)">
			<title>Shape</title>
			<path d="M1.51 7.5 C1.51 7.5 1.5 16.5 1.5 16.5 L13.5 16.5 L13.5 9 L6.88 9 L5.38 7.5 L1.51 7.5 ZM13.5 7.5 C14.33 7.5 15
						 8.17 15 9 L15 16.5 C15 17.33 14.33 18 13.5 18 L1.5 18 C0.67 18 0 17.33 0 16.5 L0.01 7.5 C0.01 6.67 0.67
						 6 1.5 6 L6 6 L7.5 7.5 L13.5 7.5 Z" class="st1"/>
		</g>
		<g id="shape2-3" v:mID="2" v:groupContext="shape" transform="translate(3.98437,-5.13281)">
			<title>Feuille.2</title>
			<path d="M4.64 11.67 C2.53 11.67 0.73 12.98 0 14.84 C0.73 16.69 2.53 18 4.64 18 C6.75 18 8.55 16.69 9.28 14.84 C8.55
						 12.98 6.75 11.67 4.64 11.67 ZM4.64 16.95 C3.48 16.95 2.53 16 2.53 14.84 C2.53 13.67 3.48 12.73 4.64 12.73
						 C5.81 12.73 6.75 13.67 6.75 14.84 C6.75 16 5.81 16.95 4.64 16.95 ZM4.64 13.57 C3.94 13.57 3.37 14.14 3.37
						 14.84 C3.37 15.54 3.94 16.1 4.64 16.1 C5.34 16.1 5.91 15.54 5.91 14.84 C5.91 14.14 5.34 13.57 4.64 13.57
						 Z" class="st1"/>
		</g>
	</g>
</svg>
